<?xml version="1.0" encoding="UTF-8"?>
<!DOCTYPE svg PUBLIC "-//W3C//DTD SVG 1.1//EN" "http://www.w3.org/Graphics/SVG/1.1/DTD/svg11.dtd">
<svg xmlns="http://www.w3.org/2000/svg" version="1.1" width="192px" height="192px" style="shape-rendering:geometricPrecision; text-rendering:geometricPrecision; image-rendering:optimizeQuality; fill-rule:evenodd; clip-rule:evenodd" xmlns:xlink="http://www.w3.org/1999/xlink">
<g><path style="opacity:1" fill="#6b6b5c" d="M 113.5,1.5 C 110.77,3.27749 107.77,4.61083 104.5,5.5C 106.898,3.02571 109.898,1.69238 113.5,1.5 Z"/></g>
<g><path style="opacity:1" fill="#80776b" d="M 131.5,-0.5 C 133.167,-0.5 134.833,-0.5 136.5,-0.5C 139.573,1.21645 142.573,3.21645 145.5,5.5C 149.461,10.3689 149.461,15.2022 145.5,20C 144.552,20.4828 143.552,20.6495 142.5,20.5C 142.5,20.1667 142.5,19.8333 142.5,19.5C 146.418,16.5391 147.418,12.7058 145.5,8C 141.47,3.95367 136.803,1.12034 131.5,-0.5 Z"/></g>
<g><path style="opacity:1" fill="#817976" d="M 103.5,5.5 C 101.687,8.64724 99.0204,10.6472 95.5,11.5C 97.8003,9.016 100.467,7.016 103.5,5.5 Z"/></g>
<g><path style="opacity:1" fill="#f6a617" d="M 130.5,6.5 C 133.988,6.70535 137.321,7.53869 140.5,9C 142.155,10.4443 142.822,12.2776 142.5,14.5C 132.041,15.1465 123.874,19.8132 118,28.5C 116.872,30.3453 116.372,32.3453 116.5,34.5C 110.884,33.4598 105.217,32.7931 99.5,32.5C 97.2646,32.7947 95.2646,32.4614 93.5,31.5C 99.0769,20.4311 107.744,12.5977 119.5,8C 123.17,7.45178 126.837,6.95178 130.5,6.5 Z"/></g>
<g><path style="opacity:1" fill="#e7e4d5" d="M 130.5,6.5 C 126.837,6.95178 123.17,7.45178 119.5,8C 107.744,12.5977 99.0769,20.4311 93.5,31.5C 95.3727,17.4547 103.373,8.95474 117.5,6C 122.02,5.18636 126.354,5.35303 130.5,6.5 Z"/></g>
<g><path style="opacity:1" fill="#41230d" d="M 142.5,14.5 C 141.718,16.4513 140.384,17.9513 138.5,19C 139.793,19.49 141.127,19.6567 142.5,19.5C 142.5,19.8333 142.5,20.1667 142.5,20.5C 141.71,21.4013 140.71,22.0679 139.5,22.5C 132.594,21.0243 127.094,23.3577 123,29.5C 122.235,31.0657 122.402,32.3991 123.5,33.5C 123.44,34.0431 123.107,34.3764 122.5,34.5C 121.719,33.2634 120.719,32.2634 119.5,31.5C 118.352,33.4234 117.852,35.4234 118,37.5C 119.011,38.3366 120.178,38.67 121.5,38.5C 117.895,39.8671 114.229,39.7004 110.5,38C 100.506,37.5002 90.5056,37.3335 80.5,37.5C 90.3249,36.6698 100.325,36.1698 110.5,36C 106.734,34.9709 103.067,33.8042 99.5,32.5C 105.217,32.7931 110.884,33.4598 116.5,34.5C 116.372,32.3453 116.872,30.3453 118,28.5C 123.874,19.8132 132.041,15.1465 142.5,14.5 Z"/></g>
<g><path style="opacity:1" fill="#837566" d="M 46.5,25.5 C 42.5474,25.5357 38.714,24.869 35,23.5C 31.1696,24.1745 28.3362,26.1745 26.5,29.5C 27.4491,25.2173 30.1158,22.5506 34.5,21.5C 38.131,22.4911 41.7977,23.3244 45.5,24C 46.056,24.3826 46.3893,24.8826 46.5,25.5 Z"/></g>
<g><path style="opacity:1" fill="#7b6f61" d="M 139.5,22.5 C 133.712,22.8103 128.879,25.1436 125,29.5C 124.333,30.1667 124.333,30.8333 125,31.5C 132.89,27.9858 141.057,25.3192 149.5,23.5C 141.227,27.3769 132.561,30.7103 123.5,33.5C 122.402,32.3991 122.235,31.0657 123,29.5C 127.094,23.3577 132.594,21.0243 139.5,22.5 Z"/></g>
<g><path style="opacity:1" fill="#301b0a" d="M 114.5,-0.5 C 120.167,-0.5 125.833,-0.5 131.5,-0.5C 136.803,1.12034 141.47,3.95367 145.5,8C 147.418,12.7058 146.418,16.5391 142.5,19.5C 141.127,19.6567 139.793,19.49 138.5,19C 140.384,17.9513 141.718,16.4513 142.5,14.5C 142.822,12.2776 142.155,10.4443 140.5,9C 137.321,7.53869 133.988,6.70535 130.5,6.5C 126.354,5.35303 122.02,5.18636 117.5,6C 103.373,8.95474 95.3727,17.4547 93.5,31.5C 95.2646,32.4614 97.2646,32.7947 99.5,32.5C 103.067,33.8042 106.734,34.9709 110.5,36C 100.325,36.1698 90.3249,36.6698 80.5,37.5C 80.1667,37.5 79.8333,37.5 79.5,37.5C 75.8499,37.3584 72.3499,38.0251 69,39.5C 65.8763,38.1721 62.7096,37.1721 59.5,36.5C 53.0557,33.5171 46.3891,31.0171 39.5,29C 37.0982,28.1859 34.7649,28.3526 32.5,29.5C 27.9996,37.4177 24.6662,45.7511 22.5,54.5C 19.7839,61.1124 18.4506,68.1124 18.5,75.5C 15.4613,79.892 12.7946,84.5587 10.5,89.5C 8.56272,90.1951 7.56272,89.1951 7.5,86.5C 9.74878,82.402 12.2488,78.402 15,74.5C 16.8494,62.7638 19.1827,51.0971 22,39.5C 24.35,36.473 25.85,33.1397 26.5,29.5C 28.3362,26.1745 31.1696,24.1745 35,23.5C 38.714,24.869 42.5474,25.5357 46.5,25.5C 48.2161,25.6287 49.8828,25.962 51.5,26.5C 53.0298,29.7418 55.6964,31.2418 59.5,31C 62.8215,33.2151 66.3215,35.0484 70,36.5C 71.9497,36.2926 73.1164,35.2926 73.5,33.5C 73.8333,33.5 74.1667,33.5 74.5,33.5C 79.1997,34.067 83.8664,33.4003 88.5,31.5C 89.9689,24.7497 92.3022,18.4164 95.5,12.5C 95.5,12.1667 95.5,11.8333 95.5,11.5C 99.0204,10.6472 101.687,8.64724 103.5,5.5C 103.833,5.5 104.167,5.5 104.5,5.5C 107.77,4.61083 110.77,3.27749 113.5,1.5C 113.833,0.833333 114.167,0.166667 114.5,-0.5 Z"/></g>
<g><path style="opacity:1" fill="#706855" d="M 51.5,26.5 C 58.0006,28.3372 64.1672,31.0039 70,34.5C 71.0113,33.6634 72.1779,33.33 73.5,33.5C 73.1164,35.2926 71.9497,36.2926 70,36.5C 66.3215,35.0484 62.8215,33.2151 59.5,31C 55.6964,31.2418 53.0298,29.7418 51.5,26.5 Z"/></g>
<g><path style="opacity:1" fill="#7d6f5e" d="M 95.5,12.5 C 92.3022,18.4164 89.9689,24.7497 88.5,31.5C 83.8664,33.4003 79.1997,34.067 74.5,33.5C 78.2943,32.1368 82.2943,31.1368 86.5,30.5C 87.975,26.6019 89.1417,22.6019 90,18.5C 91.617,16.2368 93.4503,14.2368 95.5,12.5 Z"/></g>
<g><path style="opacity:1" fill="#6b6456" d="M 161.5,24.5 C 167.605,32.1253 171.605,40.792 173.5,50.5C 171.665,49.8777 170.498,48.5444 170,46.5C 167.995,38.9886 164.828,31.9886 160.5,25.5C 160.624,24.8933 160.957,24.56 161.5,24.5 Z"/></g>
<g><path style="opacity:1" fill="#d86a05" d="M 157.5,29.5 C 160.519,32.8707 162.519,36.8707 163.5,41.5C 163.557,42.609 163.89,43.609 164.5,44.5C 162.175,43.3454 161.008,41.3454 161,38.5C 159.667,37.8333 158.667,36.8333 158,35.5C 157.125,36.8732 156.625,38.3732 156.5,40C 160.336,47.8353 163.336,56.0019 165.5,64.5C 164.675,65.3857 163.675,65.719 162.5,65.5C 158.361,61.532 154.027,57.6987 149.5,54C 143.796,51.285 138.462,48.1183 133.5,44.5C 133.281,43.325 133.614,42.325 134.5,41.5C 140.837,37.9155 147.504,36.2488 154.5,36.5C 155.466,34.604 155.799,32.604 155.5,30.5C 148.329,32.6293 140.996,34.2959 133.5,35.5C 137.141,32.5308 141.474,30.8641 146.5,30.5C 150.135,29.8857 153.802,29.5524 157.5,29.5 Z"/></g>
<g><path style="opacity:1" fill="#f78211" d="M 59.5,36.5 C 65.8785,41.436 72.5451,41.7694 79.5,37.5C 79.8333,37.5 80.1667,37.5 80.5,37.5C 90.5056,37.3335 100.506,37.5002 110.5,38C 114.229,39.7004 117.895,39.8671 121.5,38.5C 125.346,36.9116 129.346,35.9116 133.5,35.5C 140.996,34.2959 148.329,32.6293 155.5,30.5C 155.799,32.604 155.466,34.604 154.5,36.5C 147.504,36.2488 140.837,37.9155 134.5,41.5C 133.614,42.325 133.281,43.325 133.5,44.5C 131.669,50.8181 130.169,57.4847 129,64.5C 127.519,67.9561 125.852,71.2895 124,74.5C 117.281,79.8203 110.615,79.8203 104,74.5C 102.583,80.6992 101.416,87.0325 100.5,93.5C 98.3922,96.6259 95.5589,97.2926 92,95.5C 90.779,94.7282 89.779,93.7282 89,92.5C 87.229,87.4817 85.3957,82.4817 83.5,77.5C 80.562,78.5748 77.562,78.7415 74.5,78C 67.9287,72.6015 63.762,65.7682 62,57.5C 61.6306,53.1371 61.1306,48.8038 60.5,44.5C 59.5,44.5 58.5,44.5 57.5,44.5C 57.6107,43.8826 57.944,43.3826 58.5,43C 55.5,41.3333 52.5,39.6667 49.5,38C 46.1994,37.0033 42.866,36.6699 39.5,37C 32.1453,43.8779 28.1453,52.3779 27.5,62.5C 28.5,62.5 29.5,62.5 30.5,62.5C 30.5,62.8333 30.5,63.1667 30.5,63.5C 25.9754,65.8749 22.3087,69.2083 19.5,73.5C 20.2559,67.1169 21.2559,60.7836 22.5,54.5C 24.6662,45.7511 27.9996,37.4177 32.5,29.5C 34.7649,28.3526 37.0982,28.1859 39.5,29C 46.3891,31.0171 53.0557,33.5171 59.5,36.5 Z"/></g>
<g><path style="opacity:1" fill="#6c3409" d="M 59.5,36.5 C 62.7096,37.1721 65.8763,38.1721 69,39.5C 72.3499,38.0251 75.8499,37.3584 79.5,37.5C 72.5451,41.7694 65.8785,41.436 59.5,36.5 Z"/></g>
<g><path style="opacity:1" fill="#d66601" d="M 57.5,44.5 C 54.0392,45.7306 50.7059,47.2306 47.5,49C 42.2063,53.9789 36.5396,58.4789 30.5,62.5C 29.5,62.5 28.5,62.5 27.5,62.5C 28.1453,52.3779 32.1453,43.8779 39.5,37C 42.866,36.6699 46.1994,37.0033 49.5,38C 52.5,39.6667 55.5,41.3333 58.5,43C 57.944,43.3826 57.6107,43.8826 57.5,44.5 Z"/></g>
<g><path style="opacity:1" fill="#f5820e" d="M 164.5,44.5 C 164.34,46.1992 164.506,47.8659 165,49.5C 166.527,51.221 167.527,53.221 168,55.5C 168.901,61.1677 169.734,66.8344 170.5,72.5C 167.512,70.5103 164.845,68.1769 162.5,65.5C 163.675,65.719 164.675,65.3857 165.5,64.5C 163.336,56.0019 160.336,47.8353 156.5,40C 156.625,38.3732 157.125,36.8732 158,35.5C 158.667,36.8333 159.667,37.8333 161,38.5C 161.008,41.3454 162.175,43.3454 164.5,44.5 Z"/></g>
<g><path style="opacity:1" fill="#9c5611" d="M 163.5,41.5 C 165.809,45.4723 167.643,49.8056 169,54.5C 170.566,62.5203 172.066,70.5203 173.5,78.5C 171.025,77.3126 170.025,75.3126 170.5,72.5C 169.734,66.8344 168.901,61.1677 168,55.5C 167.527,53.221 166.527,51.221 165,49.5C 164.506,47.8659 164.34,46.1992 164.5,44.5C 163.89,43.609 163.557,42.609 163.5,41.5 Z"/></g>
<g><path style="opacity:1" fill="#6a604c" d="M 26.5,29.5 C 25.85,33.1397 24.35,36.473 22,39.5C 19.1827,51.0971 16.8494,62.7638 15,74.5C 12.2488,78.402 9.74878,82.402 7.5,86.5C 6.83333,86.5 6.16667,86.5 5.5,86.5C 7.47114,81.8949 9.97114,77.5615 13,73.5C 13.8107,61.4031 16.4774,49.7364 21,38.5C 22.3571,35.1019 24.1904,32.1019 26.5,29.5 Z"/></g>
<g><path style="opacity:1" fill="#7d4212" d="M 22.5,54.5 C 21.2559,60.7836 20.2559,67.1169 19.5,73.5C 19.6716,74.4916 19.3382,75.1583 18.5,75.5C 18.4506,68.1124 19.7839,61.1124 22.5,54.5 Z"/></g>
<g><path style="opacity:1" fill="#675f50" d="M 173.5,54.5 C 174.558,55.6002 175.392,56.9336 176,58.5C 175.907,65.1615 177.074,71.4948 179.5,77.5C 178.206,76.7101 177.039,75.7101 176,74.5C 174.84,67.8638 174.006,61.1971 173.5,54.5 Z"/></g>
<g><path style="opacity:1" fill="#86765e" d="M 181.5,80.5 C 183.81,83.1019 185.643,86.1019 187,89.5C 187.905,93.8373 189.405,97.8373 191.5,101.5C 191.5,103.167 191.5,104.833 191.5,106.5C 188.211,97.9042 184.878,89.2375 181.5,80.5 Z"/></g>
<g><path style="opacity:1" fill="#47392c" d="M 5.5,86.5 C 6.16667,86.5 6.83333,86.5 7.5,86.5C 7.56272,89.1951 8.56272,90.1951 10.5,89.5C 5.63126,100.225 3.63126,111.558 4.5,123.5C 3.72754,114.996 3.56087,106.329 4,97.5C 2.79768,100.774 1.79768,104.107 1,107.5C 0.409761,117.514 0.576428,127.514 1.5,137.5C 0.833333,136.833 0.166667,136.167 -0.5,135.5C -0.5,124.167 -0.5,112.833 -0.5,101.5C 0.117425,101.389 0.617425,101.056 1,100.5C 1.93941,95.6159 3.43941,90.9493 5.5,86.5 Z"/></g>
<g><path style="opacity:1" fill="#f8a609" d="M 57.5,44.5 C 58.5,44.5 59.5,44.5 60.5,44.5C 61.1306,48.8038 61.6306,53.1371 62,57.5C 63.762,65.7682 67.9287,72.6015 74.5,78C 77.562,78.7415 80.562,78.5748 83.5,77.5C 85.3957,82.4817 87.229,87.4817 89,92.5C 89.779,93.7282 90.779,94.7282 92,95.5C 95.5589,97.2926 98.3922,96.6259 100.5,93.5C 101.416,87.0325 102.583,80.6992 104,74.5C 110.615,79.8203 117.281,79.8203 124,74.5C 125.852,71.2895 127.519,67.9561 129,64.5C 130.169,57.4847 131.669,50.8181 133.5,44.5C 138.462,48.1183 143.796,51.285 149.5,54C 154.027,57.6987 158.361,61.532 162.5,65.5C 164.845,68.1769 167.512,70.5103 170.5,72.5C 170.025,75.3126 171.025,77.3126 173.5,78.5C 174.6,79.6049 175.267,80.9382 175.5,82.5C 175.166,86.3337 175.166,90.0003 175.5,93.5C 181.344,93.9801 181.678,95.1468 176.5,97C 182.304,96.6023 184.638,99.2689 183.5,105C 183.196,111.089 183.03,117.256 183,123.5C 183.107,120.443 181.94,118.109 179.5,116.5C 177.077,117.712 176.077,119.712 176.5,122.5C 174.876,122.36 173.71,123.027 173,124.5C 172.316,123.216 172.483,122.049 173.5,121C 171.833,120.667 170.167,120.333 168.5,120C 170.615,119.443 172.615,118.609 174.5,117.5C 175.788,115.701 175.788,114.035 174.5,112.5C 167.573,112.565 160.907,113.899 154.5,116.5C 153.685,115.571 152.852,114.571 152,113.5C 150.539,115.294 150.372,117.294 151.5,119.5C 151.167,120.5 150.833,121.5 150.5,122.5C 145.419,119.57 142.586,115.237 142,109.5C 141.292,108.619 140.458,107.953 139.5,107.5C 137.49,103.908 134.323,102.242 130,102.5C 126.429,101.919 123.929,103.252 122.5,106.5C 120.974,107.492 120.307,108.992 120.5,111C 120.514,112.385 120.848,113.551 121.5,114.5C 122.092,118.089 124.092,120.422 127.5,121.5C 129.948,122.473 132.615,122.806 135.5,122.5C 137.052,123.622 138.718,124.122 140.5,124C 141.791,121.91 141.124,120.576 138.5,120C 139.618,118.926 140.618,117.76 141.5,116.5C 142.585,119.383 144.585,121.383 147.5,122.5C 138.339,124.662 136.005,129.996 140.5,138.5C 143.974,143.158 147.974,143.491 152.5,139.5C 153.798,136.578 154.798,133.578 155.5,130.5C 156.833,130.5 158.167,130.5 159.5,130.5C 162.152,130.41 164.485,131.076 166.5,132.5C 166.804,133.15 167.137,133.817 167.5,134.5C 170.986,135.276 174.486,135.942 178,136.5C 179.876,137.619 180.709,139.286 180.5,141.5C 173.287,157.439 160.953,165.939 143.5,167C 135.389,170.05 132.056,175.883 133.5,184.5C 131.833,184.5 130.167,184.5 128.5,184.5C 104.818,184.748 81.1512,184.415 57.5,183.5C 57.8064,180.615 57.4731,177.948 56.5,175.5C 54.4,172.896 52.0666,170.396 49.5,168C 43.9618,167.161 38.6284,165.995 33.5,164.5C 28.562,160.064 23.7287,155.397 19,150.5C 16.2162,145.979 13.7162,141.312 11.5,136.5C 9.5812,126.625 9.0812,116.625 10,106.5C 11.9489,102.371 13.1156,98.0373 13.5,93.5C 16.7669,83.403 22.2669,74.7364 30,67.5C 30.49,66.2068 30.6567,64.8734 30.5,63.5C 30.5,63.1667 30.5,62.8333 30.5,62.5C 36.5396,58.4789 42.2063,53.9789 47.5,49C 50.7059,47.2306 54.0392,45.7306 57.5,44.5 Z"/></g>
<g><path style="opacity:1" fill="#3a1d03" d="M 14.5,112.5 C 21.6169,112.39 28.2836,114.056 34.5,117.5C 35.3857,118.325 35.719,119.325 35.5,120.5C 28.4154,119.784 21.5821,118.117 15,115.5C 14.5172,114.552 14.3505,113.552 14.5,112.5 Z"/></g>
<g><path style="opacity:1" fill="#674310" d="M 122.5,106.5 C 121.735,109.096 121.401,111.763 121.5,114.5C 120.848,113.551 120.514,112.385 120.5,111C 120.307,108.992 120.974,107.492 122.5,106.5 Z"/></g>
<g><path style="opacity:1" fill="#411b04" d="M 90.5,108.5 C 93.5184,108.335 96.5184,108.502 99.5,109C 100.833,110.333 100.833,111.667 99.5,113C 96.8333,113.667 94.1667,113.667 91.5,113C 90.6198,111.644 90.2865,110.144 90.5,108.5 Z"/></g>
<g><path style="opacity:1" fill="#1d0a00" d="M 139.5,107.5 C 141.158,112.51 140.158,116.843 136.5,120.5C 133.57,121.299 130.57,121.632 127.5,121.5C 124.092,120.422 122.092,118.089 121.5,114.5C 121.401,111.763 121.735,109.096 122.5,106.5C 123.929,103.252 126.429,101.919 130,102.5C 134.323,102.242 137.49,103.908 139.5,107.5 Z"/></g>
<g><path style="opacity:1" fill="#1e0c00" d="M 62.5,102.5 C 66.496,103.163 68.8293,105.496 69.5,109.5C 69.7805,120.396 64.7805,124.23 54.5,121C 49.1765,114.96 49.1765,108.96 54.5,103C 57.146,102.503 59.8127,102.336 62.5,102.5 Z"/></g>
<g><path style="opacity:1" fill="#f2c44a" d="M 13.5,93.5 C 13.1156,98.0373 11.9489,102.371 10,106.5C 9.0812,116.625 9.5812,126.625 11.5,136.5C 10.8525,134.502 10.0192,132.502 9,130.5C 8.33333,122.167 8.33333,113.833 9,105.5C 10.2115,101.265 11.7115,97.265 13.5,93.5 Z"/></g>
<g><path style="opacity:1" fill="#ad6d0f" d="M 184.5,102.5 C 186.04,104.838 186.706,107.505 186.5,110.5C 186.821,116.026 186.488,121.36 185.5,126.5C 185.698,118.466 185.365,110.466 184.5,102.5 Z"/></g>
<g><path style="opacity:1" fill="#d18e14" d="M 62.5,102.5 C 59.8127,102.336 57.146,102.503 54.5,103C 49.1765,108.96 49.1765,114.96 54.5,121C 64.7805,124.23 69.7805,120.396 69.5,109.5C 71.1888,114.229 70.1888,118.396 66.5,122C 61.9826,123.421 57.4826,123.921 53,123.5C 51.5648,121.789 49.7314,120.622 47.5,120C 48,119.5 48.5,119 49,118.5C 49.3227,113.134 49.8227,107.801 50.5,102.5C 54.6478,101.356 58.6478,101.356 62.5,102.5 Z"/></g>
<g><path style="opacity:1" fill="#f0a015" d="M 175.5,82.5 C 178.051,84.5777 179.884,87.2444 181,90.5C 183.056,94.2677 184.222,98.2677 184.5,102.5C 185.365,110.466 185.698,118.466 185.5,126.5C 185.227,132.027 183.561,137.027 180.5,141.5C 180.709,139.286 179.876,137.619 178,136.5C 174.486,135.942 170.986,135.276 167.5,134.5C 167.137,133.817 166.804,133.15 166.5,132.5C 169.308,133.929 172.308,134.595 175.5,134.5C 175.548,131.708 174.215,129.875 171.5,129C 166.696,126.787 161.696,125.287 156.5,124.5C 156.028,127.358 157.028,129.358 159.5,130.5C 158.167,130.5 156.833,130.5 155.5,130.5C 154.798,133.578 153.798,136.578 152.5,139.5C 147.974,143.491 143.974,143.158 140.5,138.5C 136.005,129.996 138.339,124.662 147.5,122.5C 144.585,121.383 142.585,119.383 141.5,116.5C 140.618,117.76 139.618,118.926 138.5,120C 141.124,120.576 141.791,121.91 140.5,124C 138.718,124.122 137.052,123.622 135.5,122.5C 135.833,121.833 136.167,121.167 136.5,120.5C 140.158,116.843 141.158,112.51 139.5,107.5C 140.458,107.953 141.292,108.619 142,109.5C 142.586,115.237 145.419,119.57 150.5,122.5C 150.833,121.5 151.167,120.5 151.5,119.5C 150.372,117.294 150.539,115.294 152,113.5C 152.852,114.571 153.685,115.571 154.5,116.5C 152.823,119.139 153.49,120.806 156.5,121.5C 161.26,119.367 166.26,117.867 171.5,117C 173.863,116.411 174.863,114.911 174.5,112.5C 175.788,114.035 175.788,115.701 174.5,117.5C 172.615,118.609 170.615,119.443 168.5,120C 170.167,120.333 171.833,120.667 173.5,121C 172.483,122.049 172.316,123.216 173,124.5C 173.71,123.027 174.876,122.36 176.5,122.5C 176.077,119.712 177.077,117.712 179.5,116.5C 181.94,118.109 183.107,120.443 183,123.5C 183.03,117.256 183.196,111.089 183.5,105C 184.638,99.2689 182.304,96.6023 176.5,97C 181.678,95.1468 181.344,93.9801 175.5,93.5C 175.166,90.0003 175.166,86.3337 175.5,82.5 Z"/></g>
<g><path style="opacity:1" fill="#3f1f04" d="M 174.5,112.5 C 174.863,114.911 173.863,116.411 171.5,117C 166.26,117.867 161.26,119.367 156.5,121.5C 153.49,120.806 152.823,119.139 154.5,116.5C 160.907,113.899 167.573,112.565 174.5,112.5 Z"/></g>
<g><path style="opacity:1" fill="#7f5108" d="M 136.5,120.5 C 136.167,121.167 135.833,121.833 135.5,122.5C 132.615,122.806 129.948,122.473 127.5,121.5C 130.57,121.632 133.57,121.299 136.5,120.5 Z"/></g>
<g><path style="opacity:1" fill="#472205" d="M 93.5,117.5 C 94.8734,117.343 96.2068,117.51 97.5,118C 98.4144,119.914 99.9144,121.081 102,121.5C 103.879,119.987 106.046,119.321 108.5,119.5C 108.556,124.111 106.223,126.444 101.5,126.5C 99.3233,125.754 97.3233,124.754 95.5,123.5C 88.3847,128.467 84.0514,126.8 82.5,118.5C 85.507,118.365 88.007,119.365 90,121.5C 92.3271,121.178 93.4938,119.844 93.5,117.5 Z"/></g>
<g><path style="opacity:1" fill="#3f1c04" d="M 166.5,132.5 C 164.485,131.076 162.152,130.41 159.5,130.5C 157.028,129.358 156.028,127.358 156.5,124.5C 161.696,125.287 166.696,126.787 171.5,129C 174.215,129.875 175.548,131.708 175.5,134.5C 172.308,134.595 169.308,133.929 166.5,132.5 Z"/></g>
<g><path style="opacity:1" fill="#6a5f52" d="M 191.5,126.5 C 191.5,128.833 191.5,131.167 191.5,133.5C 190.143,134.59 189.143,135.924 188.5,137.5C 188.451,134.626 188.784,131.792 189.5,129C 189.684,127.624 190.351,126.791 191.5,126.5 Z"/></g>
<g><path style="opacity:1" fill="#fa9d5a" d="M 145.5,125.5 C 152.617,126.126 154.95,129.792 152.5,136.5C 148.833,136.5 145.167,136.5 141.5,136.5C 140.867,131.982 142.2,128.316 145.5,125.5 Z"/></g>
<g><path style="opacity:1" fill="#3a1d05" d="M 24.5,125.5 C 27.1667,125.5 29.8333,125.5 32.5,125.5C 32.67,126.822 32.3366,127.989 31.5,129C 25.7661,131.209 20.0995,133.375 14.5,135.5C 14.3433,134.127 14.51,132.793 15,131.5C 18.1855,129.429 21.3522,127.429 24.5,125.5 Z"/></g>
<g><path style="opacity:1" fill="#faa054" d="M 40.5,124.5 C 44.9853,124.647 47.652,126.98 48.5,131.5C 48.1749,135.816 45.8416,138.15 41.5,138.5C 38.7997,136.766 36.7997,134.432 35.5,131.5C 37.0863,129.827 37.7529,127.827 37.5,125.5C 38.791,125.737 39.791,125.404 40.5,124.5 Z"/></g>
<g><path style="opacity:1" fill="#efebdc" d="M 30.5,63.5 C 30.6567,64.8734 30.49,66.2068 30,67.5C 22.2669,74.7364 16.7669,83.403 13.5,93.5C 11.7115,97.265 10.2115,101.265 9,105.5C 8.33333,113.833 8.33333,122.167 9,130.5C 10.0192,132.502 10.8525,134.502 11.5,136.5C 13.7162,141.312 16.2162,145.979 19,150.5C 23.7287,155.397 28.562,160.064 33.5,164.5C 29.6367,163.283 25.97,161.616 22.5,159.5C 11.7628,150.026 5.76279,138.026 4.5,123.5C 3.63126,111.558 5.63126,100.225 10.5,89.5C 12.7946,84.5587 15.4613,79.892 18.5,75.5C 19.3382,75.1583 19.6716,74.4916 19.5,73.5C 22.3087,69.2083 25.9754,65.8749 30.5,63.5 Z"/></g>
<g><path style="opacity:1" fill="#80786e" d="M 188.5,137.5 C 188.121,142.918 186.121,147.585 182.5,151.5C 183.602,146.392 185.602,141.725 188.5,137.5 Z"/></g>
<g><path style="opacity:1" fill="#2e1f0f" d="M 4.5,123.5 C 5.76279,138.026 11.7628,150.026 22.5,159.5C 21.8826,159.611 21.3826,159.944 21,160.5C 19.5993,158.808 17.7659,158.141 15.5,158.5C 13.8058,157.314 12.1392,157.481 10.5,159C 3.76799,164.537 4.10132,169.704 11.5,174.5C 11.0377,175.88 10.0377,176.547 8.5,176.5C 6.48935,175.481 4.48935,174.481 2.5,173.5C 1.09828,169.099 1.26495,164.765 3,160.5C 5.44416,158.246 7.61083,155.913 9.5,153.5C 7.29974,147.766 4.63307,142.433 1.5,137.5C 0.576428,127.514 0.409761,117.514 1,107.5C 1.79768,104.107 2.79768,100.774 4,97.5C 3.56087,106.329 3.72754,114.996 4.5,123.5 Z"/></g>
<g><path style="opacity:1" fill="#857e6c" d="M 182.5,152.5 C 185.543,154.543 187.876,157.21 189.5,160.5C 186.586,159.094 184.086,157.094 182,154.5C 181.308,153.563 181.475,152.897 182.5,152.5 Z"/></g>
<g><path style="opacity:1" fill="#746753" d="M 1.5,137.5 C 4.63307,142.433 7.29974,147.766 9.5,153.5C 7.61083,155.913 5.44416,158.246 3,160.5C 1.26495,164.765 1.09828,169.099 2.5,173.5C 2.16667,173.5 1.83333,173.5 1.5,173.5C 1.16667,172.5 0.5,171.833 -0.5,171.5C -0.5,168.167 -0.5,164.833 -0.5,161.5C 1.8996,158.595 4.56627,155.761 7.5,153C 4.42084,148.264 2.42084,143.098 1.5,137.5 Z"/></g>
<g><path style="opacity:1" fill="#381a05" d="M 15.5,159.5 C 15.5,159.167 15.5,158.833 15.5,158.5C 17.7659,158.141 19.5993,158.808 21,160.5C 21.3826,159.944 21.8826,159.611 22.5,159.5C 25.97,161.616 29.6367,163.283 33.5,164.5C 38.6284,165.995 43.9618,167.161 49.5,168C 52.0666,170.396 54.4,172.896 56.5,175.5C 56.7947,177.735 56.4614,179.735 55.5,181.5C 54.464,173.723 53.464,173.723 52.5,181.5C 53.1717,178.058 52.1717,175.391 49.5,173.5C 48.5084,173.672 47.8417,173.338 47.5,172.5C 43.1004,170.949 38.4338,170.116 33.5,170C 30.4576,167.775 27.1242,166.275 23.5,165.5C 21.1401,163.147 18.4735,161.147 15.5,159.5 Z"/></g>
<g><path style="opacity:1" fill="#2f1c08" d="M 161.5,24.5 C 160.957,24.56 160.624,24.8933 160.5,25.5C 164.828,31.9886 167.995,38.9886 170,46.5C 170.498,48.5444 171.665,49.8777 173.5,50.5C 173.5,51.8333 173.5,53.1667 173.5,54.5C 174.006,61.1971 174.84,67.8638 176,74.5C 177.039,75.7101 178.206,76.7101 179.5,77.5C 180.906,77.9731 181.573,78.9731 181.5,80.5C 184.878,89.2375 188.211,97.9042 191.5,106.5C 191.5,113.167 191.5,119.833 191.5,126.5C 190.351,126.791 189.684,127.624 189.5,129C 188.784,131.792 188.451,134.626 188.5,137.5C 185.602,141.725 183.602,146.392 182.5,151.5C 182.5,151.833 182.5,152.167 182.5,152.5C 181.475,152.897 181.308,153.563 182,154.5C 184.086,157.094 186.586,159.094 189.5,160.5C 189.842,161.338 190.508,161.672 191.5,161.5C 191.5,162.167 191.5,162.833 191.5,163.5C 190.87,167.103 189.37,170.436 187,173.5C 184.289,175.049 182.123,177.049 180.5,179.5C 175.572,180.128 170.905,181.628 166.5,184C 160.411,184.375 154.411,185.208 148.5,186.5C 113.531,191.646 78.5309,191.813 43.5,187C 35.105,185.317 26.7717,183.484 18.5,181.5C 17.8333,181.5 17.1667,181.5 16.5,181.5C 15.7387,180.609 14.7387,179.942 13.5,179.5C 12.6143,178.675 12.281,177.675 12.5,176.5C 13.8333,176.5 15.1667,176.5 16.5,176.5C 16.8333,176.5 17.1667,176.5 17.5,176.5C 28.6022,181.043 40.2689,182.709 52.5,181.5C 53.464,173.723 54.464,173.723 55.5,181.5C 55.5,182.5 55.5,183.5 55.5,184.5C 77.1151,186.466 98.7818,186.966 120.5,186C 123.365,185.817 126.031,185.317 128.5,184.5C 130.167,184.5 131.833,184.5 133.5,184.5C 140.787,184.55 147.787,183.55 154.5,181.5C 163.484,180.006 172.151,177.173 180.5,173C 187.086,168.122 187.086,163.288 180.5,158.5C 179.04,155.296 178.54,151.962 179,148.5C 180.667,146.5 182.333,144.5 184,142.5C 184.156,138.866 185.156,135.533 187,132.5C 187.822,124.988 187.655,117.655 186.5,110.5C 186.706,107.505 186.04,104.838 184.5,102.5C 184.222,98.2677 183.056,94.2677 181,90.5C 179.884,87.2444 178.051,84.5777 175.5,82.5C 175.267,80.9382 174.6,79.6049 173.5,78.5C 172.066,70.5203 170.566,62.5203 169,54.5C 167.643,49.8056 165.809,45.4723 163.5,41.5C 162.519,36.8707 160.519,32.8707 157.5,29.5C 154.36,28.3592 151.027,28.1925 147.5,29C 146.944,29.3826 146.611,29.8826 146.5,30.5C 141.474,30.8641 137.141,32.5308 133.5,35.5C 129.346,35.9116 125.346,36.9116 121.5,38.5C 120.178,38.67 119.011,38.3366 118,37.5C 117.852,35.4234 118.352,33.4234 119.5,31.5C 120.719,32.2634 121.719,33.2634 122.5,34.5C 123.107,34.3764 123.44,34.0431 123.5,33.5C 132.561,30.7103 141.227,27.3769 149.5,23.5C 153.807,20.6666 157.807,21 161.5,24.5 Z"/></g>
<g><path style="opacity:1" fill="#9e5b1a" d="M 157.5,29.5 C 153.802,29.5524 150.135,29.8857 146.5,30.5C 146.611,29.8826 146.944,29.3826 147.5,29C 151.027,28.1925 154.36,28.3592 157.5,29.5 Z"/></g>
<g><path style="opacity:1" fill="#e8e4d3" d="M 15.5,158.5 C 15.5,158.833 15.5,159.167 15.5,159.5C 13.5637,161.412 12.2304,163.746 11.5,166.5C 12.1822,168.841 12.8489,171.174 13.5,173.5C 15.9328,173.273 17.5994,174.273 18.5,176.5C 18.1667,176.5 17.8333,176.5 17.5,176.5C 17.1667,176.5 16.8333,176.5 16.5,176.5C 14.9724,175.691 13.3057,175.024 11.5,174.5C 4.10132,169.704 3.76799,164.537 10.5,159C 12.1392,157.481 13.8058,157.314 15.5,158.5 Z"/></g>
<g><path style="opacity:1" fill="#f6a917" d="M 15.5,159.5 C 18.4735,161.147 21.1401,163.147 23.5,165.5C 20.4017,165.413 20.0684,165.913 22.5,167C 22.1667,167.333 21.8333,167.667 21.5,168C 24.8245,168.139 27.8245,169.139 30.5,171C 29.2842,172.74 27.6175,173.74 25.5,174C 25.8333,174.333 26.1667,174.667 26.5,175C 23.8323,175.567 21.1656,176.067 18.5,176.5C 17.5994,174.273 15.9328,173.273 13.5,173.5C 12.8489,171.174 12.1822,168.841 11.5,166.5C 12.2304,163.746 13.5637,161.412 15.5,159.5 Z"/></g>
<g><path style="opacity:1" fill="#c48315" d="M 178.5,157.5 C 175.606,158.882 173.106,160.882 171,163.5C 170.544,164.744 171.044,165.577 172.5,166C 167.629,166.686 162.962,167.852 158.5,169.5C 164.805,166.384 170.472,162.218 175.5,157C 176.749,156.26 177.749,156.427 178.5,157.5 Z"/></g>
<g><path style="opacity:1" fill="#3c1d04" d="M 186.5,110.5 C 187.655,117.655 187.822,124.988 187,132.5C 185.156,135.533 184.156,138.866 184,142.5C 182.333,144.5 180.667,146.5 179,148.5C 178.54,151.962 179.04,155.296 180.5,158.5C 179.508,158.672 178.842,158.338 178.5,157.5C 177.749,156.427 176.749,156.26 175.5,157C 170.472,162.218 164.805,166.384 158.5,169.5C 157.739,170.391 156.739,171.058 155.5,171.5C 151.869,170.485 148.202,170.319 144.5,171C 143.058,171.377 142.058,172.21 141.5,173.5C 139.018,175.503 138.018,178.169 138.5,181.5C 143.833,181.5 149.167,181.5 154.5,181.5C 147.787,183.55 140.787,184.55 133.5,184.5C 132.056,175.883 135.389,170.05 143.5,167C 160.953,165.939 173.287,157.439 180.5,141.5C 183.561,137.027 185.227,132.027 185.5,126.5C 186.488,121.36 186.821,116.026 186.5,110.5 Z"/></g>
<g><path style="opacity:1" fill="#f5a40c" d="M 178.5,157.5 C 178.842,158.338 179.508,158.672 180.5,158.5C 187.086,163.288 187.086,168.122 180.5,173C 172.151,177.173 163.484,180.006 154.5,181.5C 149.167,181.5 143.833,181.5 138.5,181.5C 138.018,178.169 139.018,175.503 141.5,173.5C 147.139,172.361 152.805,172.361 158.5,173.5C 158.5,172.167 158.5,170.833 158.5,169.5C 162.962,167.852 167.629,166.686 172.5,166C 171.044,165.577 170.544,164.744 171,163.5C 173.106,160.882 175.606,158.882 178.5,157.5 Z"/></g>
<g><path style="opacity:1" fill="#c88619" d="M 158.5,169.5 C 158.5,170.833 158.5,172.167 158.5,173.5C 152.805,172.361 147.139,172.361 141.5,173.5C 142.058,172.21 143.058,171.377 144.5,171C 148.202,170.319 151.869,170.485 155.5,171.5C 156.739,171.058 157.739,170.391 158.5,169.5 Z"/></g>
<g><path style="opacity:1" fill="#f5f9a0" d="M 1.5,173.5 C 1.83333,173.5 2.16667,173.5 2.5,173.5C 2.5,174.167 2.5,174.833 2.5,175.5C 1.79105,176.404 0.791047,176.737 -0.5,176.5C -0.5,175.833 -0.5,175.167 -0.5,174.5C 0.166667,174.167 0.833333,173.833 1.5,173.5 Z"/></g>
<g><path style="opacity:1" fill="#7f7756" d="M 191.5,163.5 C 191.5,165.833 191.5,168.167 191.5,170.5C 189.821,172 188.488,173.833 187.5,176C 185.473,177.879 183.14,179.046 180.5,179.5C 182.123,177.049 184.289,175.049 187,173.5C 189.37,170.436 190.87,167.103 191.5,163.5 Z"/></g>
<g><path style="opacity:1" fill="#614f36" d="M 2.5,173.5 C 4.48935,174.481 6.48935,175.481 8.5,176.5C 10.0377,176.547 11.0377,175.88 11.5,174.5C 13.3057,175.024 14.9724,175.691 16.5,176.5C 15.1667,176.5 13.8333,176.5 12.5,176.5C 12.281,177.675 12.6143,178.675 13.5,179.5C 14.7387,179.942 15.7387,180.609 16.5,181.5C 15.5,181.5 14.5,181.5 13.5,181.5C 9.42916,180.253 5.76249,178.253 2.5,175.5C 2.5,174.833 2.5,174.167 2.5,173.5 Z"/></g>
<g><path style="opacity:1" fill="#dd9516" d="M 23.5,165.5 C 27.1242,166.275 30.4576,167.775 33.5,170C 38.4338,170.116 43.1004,170.949 47.5,172.5C 42.8215,172.334 38.1548,172.501 33.5,173C 31.7091,173.415 30.3757,174.415 29.5,176C 31.1124,176.72 32.6124,176.554 34,175.5C 36.1821,176.93 38.3488,178.43 40.5,180C 43.8168,180.498 47.1501,180.665 50.5,180.5C 50.552,178.097 50.2186,175.764 49.5,173.5C 52.1717,175.391 53.1717,178.058 52.5,181.5C 40.2689,182.709 28.6022,181.043 17.5,176.5C 17.8333,176.5 18.1667,176.5 18.5,176.5C 21.1656,176.067 23.8323,175.567 26.5,175C 26.1667,174.667 25.8333,174.333 25.5,174C 27.6175,173.74 29.2842,172.74 30.5,171C 27.8245,169.139 24.8245,168.139 21.5,168C 21.8333,167.667 22.1667,167.333 22.5,167C 20.0684,165.913 20.4017,165.413 23.5,165.5 Z"/></g>
<g><path style="opacity:1" fill="#f9a50f" d="M 47.5,172.5 C 47.8417,173.338 48.5084,173.672 49.5,173.5C 50.2186,175.764 50.552,178.097 50.5,180.5C 47.1501,180.665 43.8168,180.498 40.5,180C 38.3488,178.43 36.1821,176.93 34,175.5C 32.6124,176.554 31.1124,176.72 29.5,176C 30.3757,174.415 31.7091,173.415 33.5,173C 38.1548,172.501 42.8215,172.334 47.5,172.5 Z"/></g>
<g><path style="opacity:1" fill="#9e986a" d="M 13.5,181.5 C 14.5,181.5 15.5,181.5 16.5,181.5C 17.1667,181.5 17.8333,181.5 18.5,181.5C 21.7649,183.032 25.0982,184.365 28.5,185.5C 23.0362,185.584 18.0362,184.25 13.5,181.5 Z"/></g>
<g><path style="opacity:1" fill="#ae7518" d="M 56.5,175.5 C 57.4731,177.948 57.8064,180.615 57.5,183.5C 81.1512,184.415 104.818,184.748 128.5,184.5C 126.031,185.317 123.365,185.817 120.5,186C 98.7818,186.966 77.1151,186.466 55.5,184.5C 55.5,183.5 55.5,182.5 55.5,181.5C 56.4614,179.735 56.7947,177.735 56.5,175.5 Z"/></g>
<g><path style="opacity:1" fill="#927d5f" d="M 180.5,179.5 C 176.98,182.089 172.98,183.922 168.5,185C 161.837,186.277 155.17,187.444 148.5,188.5C 148.5,187.833 148.5,187.167 148.5,186.5C 154.411,185.208 160.411,184.375 166.5,184C 170.905,181.628 175.572,180.128 180.5,179.5 Z"/></g>
<g><path style="opacity:1" fill="#f9faf9" d="M 164.5,187.5 C 165.289,187.783 165.956,188.283 166.5,189C 165.184,189.528 164.517,189.028 164.5,187.5 Z"/></g>
<g><path style="opacity:1" fill="#716041" d="M 18.5,181.5 C 26.7717,183.484 35.105,185.317 43.5,187C 78.5309,191.813 113.531,191.646 148.5,186.5C 148.5,187.167 148.5,187.833 148.5,188.5C 143.362,188.434 138.362,189.1 133.5,190.5C 132.903,189.861 132.07,189.528 131,189.5C 129.301,189.387 128.134,190.053 127.5,191.5C 104.5,191.5 81.5,191.5 58.5,191.5C 58.3893,190.883 58.056,190.383 57.5,190C 47.6464,189.365 37.9797,187.865 28.5,185.5C 25.0982,184.365 21.7649,183.032 18.5,181.5 Z"/></g>
<g><path style="opacity:1" fill="#c4b2a5" d="M 133.5,190.5 C 132.508,190.328 131.842,190.662 131.5,191.5C 130.167,191.5 128.833,191.5 127.5,191.5C 128.134,190.053 129.301,189.387 131,189.5C 132.07,189.528 132.903,189.861 133.5,190.5 Z"/></g>
</svg>
